<?xml version="1.0" encoding="UTF-8" standalone="no"?>
<svg
   version="1.1"
   id="layer_1"
   x="0px"
   y="0px"
   viewBox="0 0 62.999999 78.000003"
   xml:space="preserve"
   sodipodi:docname="0.svg"
   width="63"
   height="78"
   inkscape:version="1.3.2 (091e20e, 2023-11-25, custom)"
   xmlns:inkscape="http://www.inkscape.org/namespaces/inkscape"
   xmlns:sodipodi="http://sodipodi.sourceforge.net/DTD/sodipodi-0.dtd"
   xmlns="http://www.w3.org/2000/svg"
   xmlns:svg="http://www.w3.org/2000/svg"><defs
   id="defs1" /><sodipodi:namedview
   id="namedview1"
   pagecolor="#ffffff"
   bordercolor="#000000"
   borderopacity="0.25"
   inkscape:showpageshadow="2"
   inkscape:pageopacity="0.0"
   inkscape:pagecheckerboard="0"
   inkscape:deskcolor="#d1d1d1"
   inkscape:zoom="10.106044"
   inkscape:cx="31.46632"
   inkscape:cy="39.134998"
   inkscape:window-width="1920"
   inkscape:window-height="1001"
   inkscape:window-x="1911"
   inkscape:window-y="-9"
   inkscape:window-maximized="1"
   inkscape:current-layer="layer_1" />
<style
   type="text/css"
   id="style1">
	.st0{fill:#E7211A;}
</style>
<g
   id="zero"
   transform="matrix(1.8600531,0,0,1.8288394,-27.045173,-32.57163)">
	<path
   id="path3957"
   class="st0"
   d="m 23.33,25.31 v -7.5 h 7.5 v 7.5 z" />
	<path
   id="path3965"
   class="st0"
   d="m 32.12,25.31 v -7.5 h 7.5 v 7.5 z" />
	<path
   id="path3969"
   class="st0"
   d="m 40.91,42.88 v -7.5 h 7.5 v 7.5 z" />
	<path
   id="path3971"
   class="st0"
   d="m 40.91,34.1 v -7.5 h 7.5 v 7.5 z" />
	<path
   id="path3973"
   class="st0"
   d="m 40.91,25.31 v -7.5 h 3.75 l 3.75,3.75 v 3.75 z" />
	<path
   id="path3975"
   class="st0"
   d="m 40.91,51.67 v -7.5 h 7.5 v 7.5 z" />
	<path
   id="path3977"
   class="st0"
   d="m 14.54,42.88 v -7.5 h 7.5 v 7.5 z" />
	<path
   id="path3979"
   class="st0"
   d="m 14.54,34.1 v -7.5 h 7.5 v 7.5 z" />
	<path
   id="path3981"
   class="st0"
   d="m 14.54,25.31 v -3.75 l 3.75,-3.75 h 3.75 v 7.5 z" />
	<path
   id="path3983"
   class="st0"
   d="m 14.54,51.67 v -7.5 h 7.5 v 7.5 z" />
	<path
   id="path3985"
   class="st0"
   d="m 23.33,60.46 v -7.5 h 7.5 v 7.5 z" />
	<path
   id="path3987"
   class="st0"
   d="m 32.12,60.46 v -7.5 h 7.5 v 7.5 z" />
	<path
   id="path3989"
   class="st0"
   d="m 40.91,60.46 v -7.5 h 7.5 v 3.75 l -3.75,3.75 z" />
	<path
   id="path3991"
   class="st0"
   d="m 14.54,56.71 v -3.75 h 7.5 v 7.5 h -3.75 z" />
</g>
</svg>
