<?xml version="1.0" encoding="UTF-8" standalone="no"?>
<svg
   version="1.1"
   id="layer_1"
   x="0px"
   y="0px"
   viewBox="0 0 62.999999 78.000003"
   xml:space="preserve"
   sodipodi:docname="2.svg"
   width="63"
   height="78"
   inkscape:version="1.3.2 (091e20e, 2023-11-25, custom)"
   xmlns:inkscape="http://www.inkscape.org/namespaces/inkscape"
   xmlns:sodipodi="http://sodipodi.sourceforge.net/DTD/sodipodi-0.dtd"
   xmlns="http://www.w3.org/2000/svg"
   xmlns:svg="http://www.w3.org/2000/svg"><defs
   id="defs1" /><sodipodi:namedview
   id="namedview1"
   pagecolor="#ffffff"
   bordercolor="#000000"
   borderopacity="0.25"
   inkscape:showpageshadow="2"
   inkscape:pageopacity="0.0"
   inkscape:pagecheckerboard="0"
   inkscape:deskcolor="#d1d1d1"
   inkscape:zoom="10.106044"
   inkscape:cx="31.46632"
   inkscape:cy="39.134998"
   inkscape:window-width="1920"
   inkscape:window-height="1001"
   inkscape:window-x="1911"
   inkscape:window-y="-9"
   inkscape:window-maximized="1"
   inkscape:current-layer="layer_1" />
<style
   type="text/css"
   id="style1">
	.st0{fill:#E7211A;}
</style>
<g
   id="two"
   transform="matrix(1.8606025,0,0,1.8288394,-30.699941,-27.816647)">
	<path
   id="path4051"
   class="st0"
   d="m 25.29,40.29 v -7.5 h 7.5 v 7.5 z" />
	<path
   id="path4055"
   class="st0"
   d="m 25.29,22.71 v -7.5 h 7.5 v 7.5 z" />
	<path
   id="path4059"
   class="st0"
   d="m 34.07,40.29 v -7.5 h 7.5 v 7.5 z" />
	<path
   id="path4063"
   class="st0"
   d="m 34.07,22.71 v -7.5 h 7.5 v 7.5 z" />
	<path
   id="path4067"
   class="st0"
   d="m 42.86,40.29 v -7.5 h 7.5 v 7.5 z" />
	<path
   id="path4069"
   class="st0"
   d="M 42.86,31.5 V 24 h 7.5 v 7.5 z" />
	<path
   id="path4071"
   class="st0"
   d="m 42.86,22.71 v -7.5 h 3.75 l 3.75,3.75 v 3.75 z" />
	<path
   id="path4075"
   class="st0"
   d="m 16.5,40.29 v -7.5 H 24 v 7.5 z" />
	<path
   id="path4079"
   class="st0"
   d="m 16.5,22.71 v -3.75 l 3.75,-3.75 H 24 v 7.5 z" />
	<path
   id="path4081"
   class="st0"
   d="m 16.5,49.07 v -7.5 H 24 v 7.5 z" />
	<path
   id="path4083"
   class="st0"
   d="m 25.29,57.86 v -7.5 h 7.5 v 7.5 z" />
	<path
   id="path4085"
   class="st0"
   d="m 34.07,57.86 v -7.5 h 7.5 v 7.5 z" />
	<path
   id="path4087"
   class="st0"
   d="m 42.86,57.86 v -7.5 h 7.5 v 3.75 l -3.75,3.75 z" />
	<path
   id="path4089"
   class="st0"
   d="M 16.5,54.11 V 50.36 H 24 v 7.5 h -3.75 z" />
</g>
</svg>
