<?xml version="1.0" encoding="UTF-8" standalone="no"?>
<svg
   version="1.1"
   id="layer_1"
   x="0px"
   y="0px"
   viewBox="0 0 62.999999 78.000003"
   xml:space="preserve"
   sodipodi:docname="4.svg"
   width="63"
   height="78"
   inkscape:version="1.3.2 (091e20e, 2023-11-25, custom)"
   xmlns:inkscape="http://www.inkscape.org/namespaces/inkscape"
   xmlns:sodipodi="http://sodipodi.sourceforge.net/DTD/sodipodi-0.dtd"
   xmlns="http://www.w3.org/2000/svg"
   xmlns:svg="http://www.w3.org/2000/svg"><defs
   id="defs1" /><sodipodi:namedview
   id="namedview1"
   pagecolor="#ffffff"
   bordercolor="#000000"
   borderopacity="0.25"
   inkscape:showpageshadow="2"
   inkscape:pageopacity="0.0"
   inkscape:pagecheckerboard="0"
   inkscape:deskcolor="#d1d1d1"
   inkscape:zoom="10.106044"
   inkscape:cx="31.46632"
   inkscape:cy="39.134998"
   inkscape:window-width="1920"
   inkscape:window-height="1001"
   inkscape:window-x="1911"
   inkscape:window-y="-9"
   inkscape:window-maximized="1"
   inkscape:current-layer="layer_1" />
<style
   type="text/css"
   id="style1">
	.st0{fill:#E7211A;}
</style>
<g
   id="four"
   transform="matrix(1.8606025,0,0,1.8288394,-30.699941,-27.194842)">
	<path
   id="path4213"
   class="st0"
   d="m 25.29,39.95 v -7.5 h 7.5 v 7.5 z" />
	<path
   id="path4221"
   class="st0"
   d="m 34.07,39.95 v -7.5 h 7.5 v 7.5 z" />
	<path
   id="path4223"
   class="st0"
   d="m 42.86,39.95 v -7.5 h 7.5 v 7.5 z" />
	<path
   id="path4225"
   class="st0"
   d="m 42.86,31.16 v -7.5 h 7.5 v 7.5 z" />
	<path
   id="path4227"
   class="st0"
   d="m 42.86,22.37 v -7.5 h 3.75 l 3.75,3.75 v 3.75 z" />
	<path
   id="path4229"
   class="st0"
   d="m 42.86,48.73 v -7.5 h 7.5 v 7.5 z" />
	<path
   id="path4231"
   class="st0"
   d="m 16.5,39.95 v -7.5 H 24 v 7.5 z" />
	<path
   id="path4233"
   class="st0"
   d="m 16.5,31.16 v -7.5 H 24 v 7.5 z" />
	<path
   id="path4235"
   class="st0"
   d="m 16.5,22.37 v -3.75 l 3.75,-3.75 H 24 v 7.5 z" />
	<path
   id="path4243"
   class="st0"
   d="m 42.86,57.52 v -7.5 h 7.5 v 3.75 l -3.75,3.75 z" />
</g>
</svg>
