<?xml version="1.0" encoding="UTF-8" standalone="no"?>
<svg
   version="1.1"
   id="layer_1"
   x="0px"
   y="0px"
   viewBox="0 0 62.999999 78.000003"
   xml:space="preserve"
   sodipodi:docname="6.svg"
   width="63"
   height="78"
   inkscape:version="1.3.2 (091e20e, 2023-11-25, custom)"
   xmlns:inkscape="http://www.inkscape.org/namespaces/inkscape"
   xmlns:sodipodi="http://sodipodi.sourceforge.net/DTD/sodipodi-0.dtd"
   xmlns="http://www.w3.org/2000/svg"
   xmlns:svg="http://www.w3.org/2000/svg"><defs
   id="defs1" /><sodipodi:namedview
   id="namedview1"
   pagecolor="#ffffff"
   bordercolor="#000000"
   borderopacity="0.25"
   inkscape:showpageshadow="2"
   inkscape:pageopacity="0.0"
   inkscape:pagecheckerboard="0"
   inkscape:deskcolor="#d1d1d1"
   inkscape:zoom="10.106044"
   inkscape:cx="31.46632"
   inkscape:cy="39.134998"
   inkscape:window-width="1920"
   inkscape:window-height="1001"
   inkscape:window-x="1911"
   inkscape:window-y="-9"
   inkscape:window-maximized="1"
   inkscape:current-layer="layer_1" />
<style
   type="text/css"
   id="style1">
	.st0{fill:#E7211A;}
</style>
<g
   id="six"
   transform="matrix(1.8606025,0,0,1.8288394,-31.890727,-27.816647)">
	<path
   id="path4365"
   class="st0"
   d="m 25.93,40.29 v -7.5 h 7.5 v 7.5 z" />
	<path
   id="path4369"
   class="st0"
   d="m 25.93,22.71 v -7.5 h 7.5 v 7.5 z" />
	<path
   id="path4373"
   class="st0"
   d="m 34.72,40.29 v -7.5 h 7.5 v 7.5 z" />
	<path
   id="path4377"
   class="st0"
   d="m 34.72,22.71 v -7.5 h 7.5 v 7.5 z" />
	<path
   id="path4382"
   class="st0"
   d="m 43.5,40.29 v -7.5 H 51 v 7.5 z" />
	<path
   id="path4386"
   class="st0"
   d="m 43.5,22.71 v -7.5 h 3.75 L 51,18.96 v 3.75 z" />
	<path
   id="path4388"
   class="st0"
   d="m 43.5,49.07 v -7.5 H 51 v 7.5 z" />
	<path
   id="path4390"
   class="st0"
   d="m 17.14,40.29 v -7.5 h 7.5 v 7.5 z" />
	<path
   id="path4392"
   class="st0"
   d="M 17.14,31.5 V 24 h 7.5 v 7.5 z" />
	<path
   id="path4394"
   class="st0"
   d="m 17.14,22.71 v -3.75 l 3.75,-3.75 h 3.75 v 7.5 z" />
	<path
   id="path4396"
   class="st0"
   d="m 17.14,49.07 v -7.5 h 7.5 v 7.5 z" />
	<path
   id="path4398"
   class="st0"
   d="m 25.93,57.86 v -7.5 h 7.5 v 7.5 z" />
	<path
   id="path4400"
   class="st0"
   d="m 34.72,57.86 v -7.5 h 7.5 v 7.5 z" />
	<path
   id="path4402"
   class="st0"
   d="m 43.5,57.86 v -7.5 H 51 v 3.75 l -3.75,3.75 z" />
	<path
   id="path4404"
   class="st0"
   d="m 17.14,54.11 v -3.75 h 7.5 v 7.5 h -3.75 z" />
</g>
</svg>
