<?xml version="1.0" encoding="UTF-8" standalone="no"?>
<svg
   version="1.1"
   id="layer_1"
   x="0px"
   y="0px"
   viewBox="0 0 62.999999 78.000003"
   xml:space="preserve"
   sodipodi:docname="8.svg"
   width="63"
   height="78"
   inkscape:version="1.3.2 (091e20e, 2023-11-25, custom)"
   xmlns:inkscape="http://www.inkscape.org/namespaces/inkscape"
   xmlns:sodipodi="http://sodipodi.sourceforge.net/DTD/sodipodi-0.dtd"
   xmlns="http://www.w3.org/2000/svg"
   xmlns:svg="http://www.w3.org/2000/svg"><defs
   id="defs1" /><sodipodi:namedview
   id="namedview1"
   pagecolor="#ffffff"
   bordercolor="#000000"
   borderopacity="0.25"
   inkscape:showpageshadow="2"
   inkscape:pageopacity="0.0"
   inkscape:pagecheckerboard="0"
   inkscape:deskcolor="#d1d1d1"
   inkscape:zoom="10.106044"
   inkscape:cx="31.46632"
   inkscape:cy="39.134998"
   inkscape:window-width="1920"
   inkscape:window-height="1001"
   inkscape:window-x="1911"
   inkscape:window-y="-9"
   inkscape:window-maximized="1"
   inkscape:current-layer="layer_1" />
<style
   type="text/css"
   id="style1">
	.st0{fill:#E7211A;}
</style>
<g
   id="eight"
   transform="matrix(1.8606025,0,0,1.8288394,-32.709392,-27.816647)">
	<path
   id="path4517"
   class="st0"
   d="m 26.37,40.29 v -7.5 h 7.5 v 7.5 z" />
	<path
   id="path4521"
   class="st0"
   d="m 26.37,22.71 v -7.5 h 7.5 v 7.5 z" />
	<path
   id="path4525"
   class="st0"
   d="m 35.16,40.29 v -7.5 h 7.5 v 7.5 z" />
	<path
   id="path4529"
   class="st0"
   d="m 35.16,22.71 v -7.5 h 7.5 v 7.5 z" />
	<path
   id="path4533"
   class="st0"
   d="m 43.94,40.29 v -7.5 h 7.5 v 7.5 z" />
	<path
   id="path4535"
   class="st0"
   d="M 43.94,31.5 V 24 h 7.5 v 7.5 z" />
	<path
   id="path4537"
   class="st0"
   d="m 43.94,22.71 v -7.5 h 3.75 l 3.75,3.75 v 3.75 z" />
	<path
   id="path4539"
   class="st0"
   d="m 43.94,49.07 v -7.5 h 7.5 v 7.5 z" />
	<path
   id="path4541"
   class="st0"
   d="m 17.58,40.29 v -7.5 h 7.5 v 7.5 z" />
	<path
   id="path4543"
   class="st0"
   d="M 17.58,31.5 V 24 h 7.5 v 7.5 z" />
	<path
   id="path4545"
   class="st0"
   d="m 17.58,22.71 v -3.75 l 3.75,-3.75 h 3.75 v 7.5 z" />
	<path
   id="path4547"
   class="st0"
   d="m 17.58,49.07 v -7.5 h 7.5 v 7.5 z" />
	<path
   id="path4549"
   class="st0"
   d="m 26.37,57.86 v -7.5 h 7.5 v 7.5 z" />
	<path
   id="path4551"
   class="st0"
   d="m 35.16,57.86 v -7.5 h 7.5 v 7.5 z" />
	<path
   id="path4553"
   class="st0"
   d="m 43.94,57.86 v -7.5 h 7.5 v 3.75 l -3.75,3.75 z" />
	<path
   id="path4555"
   class="st0"
   d="m 17.58,54.11 v -3.75 h 7.5 v 7.5 h -3.75 z" />
</g>
</svg>
