<?xml version="1.0" encoding="UTF-8" standalone="no"?>
<svg
   version="1.1"
   id="layer_1"
   x="0px"
   y="0px"
   viewBox="0 0 62.999999 78.000003"
   xml:space="preserve"
   sodipodi:docname="9.svg"
   width="63"
   height="78"
   inkscape:version="1.3.2 (091e20e, 2023-11-25, custom)"
   xmlns:inkscape="http://www.inkscape.org/namespaces/inkscape"
   xmlns:sodipodi="http://sodipodi.sourceforge.net/DTD/sodipodi-0.dtd"
   xmlns="http://www.w3.org/2000/svg"
   xmlns:svg="http://www.w3.org/2000/svg"><defs
   id="defs1" /><sodipodi:namedview
   id="namedview1"
   pagecolor="#ffffff"
   bordercolor="#000000"
   borderopacity="0.25"
   inkscape:showpageshadow="2"
   inkscape:pageopacity="0.0"
   inkscape:pagecheckerboard="0"
   inkscape:deskcolor="#d1d1d1"
   inkscape:zoom="10.106044"
   inkscape:cx="31.46632"
   inkscape:cy="39.134998"
   inkscape:window-width="1920"
   inkscape:window-height="1001"
   inkscape:window-x="1911"
   inkscape:window-y="-9"
   inkscape:window-maximized="1"
   inkscape:current-layer="layer_1" />
<style
   type="text/css"
   id="style1">
	.st0{fill:#E7211A;}
</style>
<g
   id="nine"
   transform="matrix(1.8606025,0,0,1.8288394,-30.346426,-30.322157)">
	<path
   id="path4597"
   class="st0"
   d="m 25.1,41.65 v -7.5 h 7.5 v 7.5 z" />
	<path
   id="path4601"
   class="st0"
   d="m 25.1,24.08 v -7.5 h 7.5 v 7.5 z" />
	<path
   id="path4605"
   class="st0"
   d="m 33.89,41.65 v -7.5 h 7.5 v 7.5 z" />
	<path
   id="path4610"
   class="st0"
   d="m 33.89,24.08 v -7.5 h 7.5 v 7.5 z" />
	<path
   id="path4614"
   class="st0"
   d="m 42.67,41.65 v -7.5 h 7.5 v 7.5 z" />
	<path
   id="path4616"
   class="st0"
   d="m 42.67,32.87 v -7.5 h 7.5 v 7.5 z" />
	<path
   id="path4618"
   class="st0"
   d="m 42.67,24.08 v -7.5 h 3.75 l 3.75,3.75 v 3.75 z" />
	<path
   id="path4620"
   class="st0"
   d="m 42.67,50.44 v -7.5 h 7.5 v 7.5 z" />
	<path
   id="path4622"
   class="st0"
   d="m 16.31,41.65 v -7.5 h 7.5 v 7.5 z" />
	<path
   id="path4624"
   class="st0"
   d="m 16.31,32.87 v -7.5 h 7.5 v 7.5 z" />
	<path
   id="path4626"
   class="st0"
   d="m 16.31,24.08 v -3.75 l 3.75,-3.75 h 3.75 v 7.5 z" />
	<path
   id="path4630"
   class="st0"
   d="m 25.1,59.23 v -7.5 h 7.5 v 7.5 z" />
	<path
   id="path4632"
   class="st0"
   d="m 33.89,59.23 v -7.5 h 7.5 v 7.5 z" />
	<path
   id="path4634"
   class="st0"
   d="m 42.67,59.23 v -7.5 h 7.5 v 3.75 l -3.75,3.75 z" />
	<path
   id="path4636"
   class="st0"
   d="m 16.31,55.48 v -3.75 h 7.5 v 7.5 h -3.75 z" />
</g>
</svg>
