<?xml version="1.0" encoding="UTF-8" standalone="no"?>
<svg
   version="1.1"
   id="layer_1"
   x="0px"
   y="0px"
   viewBox="0 0 62.999999 78.000003"
   xml:space="preserve"
   sodipodi:docname="blank.svg"
   width="63"
   height="78"
   inkscape:version="1.3.2 (091e20e, 2023-11-25, custom)"
   xmlns:inkscape="http://www.inkscape.org/namespaces/inkscape"
   xmlns:sodipodi="http://sodipodi.sourceforge.net/DTD/sodipodi-0.dtd"
   xmlns="http://www.w3.org/2000/svg"
   xmlns:svg="http://www.w3.org/2000/svg"><defs
   id="defs1" /><sodipodi:namedview
   id="namedview1"
   pagecolor="#ffffff"
   bordercolor="#000000"
   borderopacity="0.25"
   inkscape:showpageshadow="2"
   inkscape:pageopacity="0.0"
   inkscape:pagecheckerboard="0"
   inkscape:deskcolor="#d1d1d1"
   inkscape:zoom="10.106044"
   inkscape:cx="31.46632"
   inkscape:cy="39.134998"
   inkscape:window-width="1920"
   inkscape:window-height="1001"
   inkscape:window-x="1911"
   inkscape:window-y="-9"
   inkscape:window-maximized="1"
   inkscape:current-layer="layer_1" />
<style
   type="text/css"
   id="style1">
	.st0{fill:#373737;}
</style>
<g
   id="all_off"
   transform="matrix(1.8606025,0,0,1.8288394,-31.890727,-31.126846)">
	<path
   id="path2984"
   class="st0"
   d="m 25.93,42.09 v -7.5 h 7.5 v 7.5 z" />
	<path
   id="path2986"
   class="st0"
   d="m 25.93,33.3 v -7.5 h 7.5 v 7.5 z" />
	<path
   id="path2988"
   class="st0"
   d="m 25.93,24.52 v -7.5 h 7.5 v 7.5 z" />
	<path
   id="path2990"
   class="st0"
   d="m 25.93,50.88 v -7.5 h 7.5 v 7.5 z" />
	<path
   id="path4005"
   class="st0"
   d="m 34.72,42.09 v -7.5 h 7.5 v 7.5 z" />
	<path
   id="path4007"
   class="st0"
   d="m 34.72,33.3 v -7.5 h 7.5 v 7.5 z" />
	<path
   id="path4009"
   class="st0"
   d="m 34.72,24.52 v -7.5 h 7.5 v 7.5 z" />
	<path
   id="path4011"
   class="st0"
   d="m 34.72,50.88 v -7.5 h 7.5 v 7.5 z" />
	<path
   id="path3004"
   class="st0"
   d="m 43.5,42.09 v -7.5 H 51 v 7.5 z" />
	<path
   id="path3006"
   class="st0"
   d="M 43.5,33.3 V 25.8 H 51 v 7.5 z" />
	<path
   id="path3008"
   class="st0"
   d="m 43.5,24.52 v -7.5 h 3.75 L 51,20.77 v 3.75 z" />
	<path
   id="path3010"
   class="st0"
   d="m 43.5,50.88 v -7.5 H 51 v 7.5 z" />
	<path
   id="path2974"
   class="st0"
   d="m 17.14,42.09 v -7.5 h 7.5 v 7.5 z" />
	<path
   id="path2976"
   class="st0"
   d="m 17.14,33.3 v -7.5 h 7.5 v 7.5 z" />
	<path
   id="path4019"
   class="st0"
   d="m 17.14,24.52 v -3.75 l 3.75,-3.75 h 3.75 v 7.5 z" />
	<path
   id="path2980"
   class="st0"
   d="m 17.14,50.88 v -7.5 h 7.5 v 7.5 z" />
	<path
   id="path3043"
   class="st0"
   d="m 25.93,59.67 v -7.5 h 7.5 v 7.5 z" />
	<path
   id="path4023"
   class="st0"
   d="m 34.72,59.67 v -7.5 h 7.5 v 7.5 z" />
	<path
   id="path3047"
   class="st0"
   d="m 43.5,59.67 v -7.5 H 51 v 3.75 l -3.75,3.75 z" />
	<path
   id="path3049"
   class="st0"
   d="m 17.14,55.92 v -3.75 h 7.5 v 7.5 h -3.75 z" />
</g>
</svg>
