<?xml version="1.0" encoding="UTF-8" standalone="no"?>
<svg
   version="1.1"
   id="layer_1"
   x="0px"
   y="0px"
   viewBox="0 0 600 600"
   xml:space="preserve"
   sodipodi:docname="my_exit_highlight.svg"
   width="600"
   height="600"
   inkscape:version="1.3.2 (091e20e, 2023-11-25, custom)"
   xmlns:inkscape="http://www.inkscape.org/namespaces/inkscape"
   xmlns:sodipodi="http://sodipodi.sourceforge.net/DTD/sodipodi-0.dtd"
   xmlns="http://www.w3.org/2000/svg"
   xmlns:svg="http://www.w3.org/2000/svg"><defs
   id="defs1" /><sodipodi:namedview
   id="namedview1"
   pagecolor="#ffffff"
   bordercolor="#000000"
   borderopacity="0.25"
   inkscape:showpageshadow="2"
   inkscape:pageopacity="0.0"
   inkscape:pagecheckerboard="0"
   inkscape:deskcolor="#d1d1d1"
   inkscape:zoom="1.2924837"
   inkscape:cx="396.13654"
   inkscape:cy="306"
   inkscape:window-width="1920"
   inkscape:window-height="1001"
   inkscape:window-x="1911"
   inkscape:window-y="-9"
   inkscape:window-maximized="1"
   inkscape:current-layer="layer_1" />
<style
   type="text/css"
   id="style1">
	.st0{fill:#B73822;}
	.st1{fill-rule:evenodd;clip-rule:evenodd;fill:#972C23;}
	.st2{fill:none;stroke:#972C23;stroke-width:7.5;stroke-linecap:round;stroke-linejoin:round;}
</style>
<g
   id="quit_hover"
   transform="matrix(6.6666667,0,0,6.6666667,-922.26667,-1002.9333)">
	<path
   id="rect1564"
   class="st0"
   d="m 148.01,150.44 h 70.66 c 5.34,0 9.67,4.33 9.67,9.67 v 70.66 c 0,5.34 -4.33,9.67 -9.67,9.67 h -70.66 c -5.34,0 -9.67,-4.33 -9.67,-9.67 v -70.66 c 0,-5.34 4.33,-9.67 9.67,-9.67 z" />
	<g
   id="g1362"
   transform="translate(2.70918,-121.0568)">
		<path
   id="path1567"
   class="st1"
   d="m 191.31,289.66 v 11.15 c 8.64,4.57 13.55,14.18 11.82,24.07 -1.92,11.06 -11.49,19 -22.72,18.9 -11.23,-0.1 -20.65,-8.27 -22.38,-19.37 -1.52,-9.8 3.39,-19.25 11.91,-23.73 V 289.7 c -11.28,3.87 -19.39,13.4 -21.7,24.58 -0.78,3.77 -0.87,7.71 -0.25,11.7 2.48,15.94 16.2,27.87 32.34,28.01 16.14,0.14 30.08,-11.52 32.84,-27.42 2.77,-15.9 -6.46,-31.56 -21.7,-36.87 -0.04,-0.02 -0.1,-0.02 -0.16,-0.04 z" />
		<path
   id="path1569"
   class="st2"
   d="m 180.63,282.75 v 34.93" />
	</g>
</g>
</svg>
