<?xml version="1.0" encoding="UTF-8" standalone="no"?>
<svg
   version="1.1"
   id="layer_1"
   x="0px"
   y="0px"
   viewBox="0 0 600 600"
   xml:space="preserve"
   sodipodi:docname="menu.svg"
   width="600"
   height="600"
   inkscape:version="1.3.2 (091e20e, 2023-11-25, custom)"
   xmlns:inkscape="http://www.inkscape.org/namespaces/inkscape"
   xmlns:sodipodi="http://sodipodi.sourceforge.net/DTD/sodipodi-0.dtd"
   xmlns="http://www.w3.org/2000/svg"
   xmlns:svg="http://www.w3.org/2000/svg"><defs
   id="defs1" /><sodipodi:namedview
   id="namedview1"
   pagecolor="#ffffff"
   bordercolor="#000000"
   borderopacity="0.25"
   inkscape:showpageshadow="2"
   inkscape:pageopacity="0.0"
   inkscape:pagecheckerboard="0"
   inkscape:deskcolor="#d1d1d1"
   inkscape:zoom="1.2924837"
   inkscape:cx="396.13652"
   inkscape:cy="305.99999"
   inkscape:window-width="1920"
   inkscape:window-height="1001"
   inkscape:window-x="1911"
   inkscape:window-y="-9"
   inkscape:window-maximized="1"
   inkscape:current-layer="layer_1" />
<style
   type="text/css"
   id="style1">
	.st0{fill:#972C23;}
	
		.st1{fill-rule:evenodd;clip-rule:evenodd;fill:#B73822;stroke:#B73822;stroke-width:5;stroke-linecap:round;stroke-linejoin:round;}
	.st2{fill-rule:evenodd;clip-rule:evenodd;fill:#972C23;stroke:#972C23;stroke-width:1.7442;stroke-linejoin:round;}
</style>
<g
   id="help_normal"
   transform="matrix(2.6666667,0,0,2.6666667,-273.57334,-1303.1734)">
	<path
   id="path4462"
   class="st0"
   d="m 248.01,624.44 h 70.66 c 5.36,0 9.67,4.31 9.67,9.67 v 70.66 c 0,5.36 -4.31,9.67 -9.67,9.67 h -70.66 c -5.36,0 -9.67,-4.31 -9.67,-9.67 v -70.66 c 0,-5.36 4.32,-9.67 9.67,-9.67 z" />
	<path
   id="path839"
   class="st1"
   d="m 283.34,634.44 c -19.32,0 -35,15.68 -35,35 0,19.32 15.68,35 35,35 19.32,0 35,-15.68 35,-35 0,-19.32 -15.68,-35 -35,-35 z" />
	<path
   id="path2224"
   class="st2"
   d="m 282.67,642.43 c 2.34,0 4.56,0.36 6.58,1.05 2.03,0.69 3.81,1.68 5.37,3.02 1.56,1.34 2.78,2.95 3.65,4.86 0.89,1.89 1.3,4.04 1.3,6.37 0,4.18 -1.03,7.41 -3.14,9.73 -2.09,2.29 -4.96,3.81 -8.64,4.57 v 1.34 c 0,1.07 -0.25,2.03 -0.71,2.85 -0.45,0.8 -1.11,1.42 -1.93,1.89 -0.8,0.45 -1.7,0.67 -2.73,0.67 -1.02,0 -1.94,-0.23 -2.77,-0.67 -0.8,-0.47 -1.42,-1.09 -1.89,-1.89 -0.45,-0.82 -0.67,-1.78 -0.67,-2.85 v -5.49 c 0,-1.14 0.2,-2.04 0.67,-2.64 0.47,-0.6 1.05,-0.99 1.72,-1.22 0.67,-0.22 1.68,-0.47 3.02,-0.71 3.47,-0.65 5.2,-2.39 5.2,-5.24 0,-1.16 -0.49,-2.19 -1.43,-3.1 -0.91,-0.93 -2.11,-1.38 -3.61,-1.38 -1.38,0 -2.47,0.26 -3.27,0.8 -0.78,0.53 -1.53,1.32 -2.31,2.35 -0.76,1 -1.51,1.77 -2.22,2.31 -0.69,0.51 -1.65,0.75 -2.85,0.75 -1.36,0 -2.5,-0.53 -3.48,-1.55 -0.96,-1.05 -1.43,-2.25 -1.43,-3.65 0,-2.45 0.79,-4.61 2.39,-6.46 1.6,-1.85 3.59,-3.26 6,-4.23 2.42,-1 4.8,-1.48 7.18,-1.48 z m -0.33,41.99 c 1.05,0 2.02,0.28 2.93,0.84 0.91,0.56 1.6,1.29 2.14,2.22 0.56,0.91 0.84,1.91 0.84,2.98 0,1.09 -0.28,2.13 -0.84,3.06 -0.53,0.91 -1.25,1.6 -2.18,2.14 -0.91,0.53 -1.87,0.8 -2.89,0.8 -1.02,0 -2,-0.26 -2.93,-0.8 -0.91,-0.53 -1.67,-1.23 -2.22,-2.14 -0.53,-0.93 -0.8,-1.97 -0.8,-3.06 0,-1.07 0.26,-2.06 0.8,-2.98 0.56,-0.93 1.31,-1.67 2.22,-2.22 0.9,-0.56 1.88,-0.84 2.93,-0.84 z" />
</g>
</svg>
